<svg width="26" height="20" viewBox="0 0 26 20" fill="none" xmlns="http://www.w3.org/2000/svg">
<path d="M10.2139 13.7612C10.2139 14.8427 9.65051 16.6125 8.31695 16.6125C6.9834 16.6125 6.41999 14.8427 6.41999 13.7612C6.41999 12.6797 6.9834 10.9099 8.31695 10.9099C9.65051 10.9099 10.2139 12.6797 10.2139 13.7612ZM25.4051 11.1479C25.4051 12.7987 25.2397 14.5478 24.5005 16.064C22.5416 20.0279 17.1556 19.9347 13.2997 19.9347C9.38173 19.9347 3.67535 20.0745 1.63883 16.064C0.884181 14.5633 0.594727 12.7987 0.594727 11.1479C0.594727 8.97967 1.31319 6.93045 2.73979 5.26933C2.47101 4.45171 2.34179 3.5927 2.34179 2.74403C2.34179 1.63144 2.59506 1.07256 3.09644 0.0634766C5.43792 0.0634766 6.93688 0.529209 8.72012 1.92641C10.2191 1.56935 11.7594 1.40893 13.3049 1.40893C14.7005 1.40893 16.1064 1.559 17.4606 1.88501C19.218 0.503335 20.717 0.0634766 23.0326 0.0634766C23.5391 1.07256 23.7872 1.63144 23.7872 2.74403C23.7872 3.5927 23.6529 4.43619 23.3892 5.23828C24.8107 6.91492 25.4051 8.97967 25.4051 11.1479ZM22.0815 13.7612C22.0815 11.4895 20.7015 9.4868 18.2824 9.4868C17.3055 9.4868 16.37 9.66275 15.3879 9.79729C14.6178 9.91631 13.8476 9.96288 13.0568 9.96288C12.2711 9.96288 11.5009 9.91631 10.7256 9.79729C9.75905 9.66275 8.81316 9.4868 7.83108 9.4868C5.41207 9.4868 4.032 11.4895 4.032 13.7612C4.032 18.3047 8.18773 19.0033 11.8059 19.0033H14.2973C17.931 19.0033 22.0815 18.3098 22.0815 13.7612ZM17.8121 10.9099C16.4785 10.9099 15.9151 12.6797 15.9151 13.7612C15.9151 14.8427 16.4785 16.6125 17.8121 16.6125C19.1456 16.6125 19.709 14.8427 19.709 13.7612C19.709 12.6797 19.1456 10.9099 17.8121 10.9099Z" fill="#BABABA"/>
</svg>
