<svg width="28" height="20" viewBox="0 0 28 20" fill="none" xmlns="http://www.w3.org/2000/svg">
<path d="M7.70851 11.4868H15.6451V19.1817H12.3738L11.9835 15.8918C11.6117 17.069 10.9488 17.9426 9.99468 18.5126C9.04056 19.0825 7.8758 19.3675 6.50038 19.3675C5.24887 19.3675 4.13367 19.0887 3.15477 18.5311C2.18826 17.9735 1.4262 17.1743 0.868598 16.1335C0.323387 15.0926 0.0507812 13.8783 0.0507812 12.4905C0.0507812 10.2724 0.713708 8.51908 2.03956 7.23041C3.36542 5.94173 5.42854 5.29739 8.22894 5.29739C9.8274 5.29739 11.2338 5.5576 12.4481 6.07803C13.6749 6.59846 14.7157 7.40388 15.5707 8.4943C15.0131 8.7793 13.9227 9.34929 12.2994 10.2043L11.8348 10.4645C11.3515 9.98124 10.7877 9.6219 10.1434 9.38647C9.49904 9.13864 8.81752 9.01473 8.09883 9.01473C6.90928 9.01473 6.02332 9.3307 5.44093 9.96265C4.85855 10.5822 4.56736 11.3505 4.56736 12.2674C4.56736 13.2587 4.87714 14.0579 5.49669 14.6651C6.12864 15.2723 7.08896 15.5758 8.37764 15.5758C8.93524 15.5758 9.47426 15.4953 9.99468 15.3342C10.5275 15.1731 10.9736 14.8943 11.3329 14.4978H7.70851V11.4868Z" fill="#BABABA"/>
<path d="M27.9495 4.53627C26.0041 4.47432 24.1144 4.43714 22.2805 4.42475V14.127H17.6338V4.42475C15.7875 4.43714 13.9041 4.47432 11.9835 4.53627V0.633059H27.9495V4.53627Z" fill="#BABABA"/>
</svg>
