<svg width="85" height="40" viewBox="0 0 85 40" fill="none" xmlns="http://www.w3.org/2000/svg">
<rect width="41" height="40" rx="20" fill="#C3DCE3"/>
<path d="M23.079 23.6H17.879L16.887 26H14.231L19.223 14.8H21.783L26.791 26H24.071L23.079 23.6ZM22.263 21.632L20.487 17.344L18.711 21.632H22.263Z" fill="#2B788B"/>
<path d="M59.768 23.408H54.168L53.064 26H50.92L55.96 14.8H58.008L63.064 26H60.888L59.768 23.408ZM59.08 21.776L56.968 16.88L54.872 21.776H59.08ZM63.6564 14.128H65.6564V26H63.6564V14.128ZM75.6734 21.776C75.6734 21.9147 75.6627 22.112 75.6414 22.368H68.9374C69.0547 22.9973 69.3587 23.4987 69.8494 23.872C70.3507 24.2347 70.9694 24.416 71.7054 24.416C72.644 24.416 73.4174 24.1067 74.0254 23.488L75.0974 24.72C74.7134 25.1787 74.228 25.5253 73.6414 25.76C73.0547 25.9947 72.3934 26.112 71.6574 26.112C70.7187 26.112 69.892 25.9253 69.1774 25.552C68.4627 25.1787 67.908 24.6613 67.5134 24C67.1294 23.328 66.9374 22.5707 66.9374 21.728C66.9374 20.896 67.124 20.1493 67.4974 19.488C67.8814 18.816 68.4094 18.2933 69.0814 17.92C69.7534 17.5467 70.5107 17.36 71.3534 17.36C72.1854 17.36 72.9267 17.5467 73.5774 17.92C74.2387 18.2827 74.7507 18.8 75.1134 19.472C75.4867 20.1333 75.6734 20.9013 75.6734 21.776ZM71.3534 18.96C70.7134 18.96 70.1694 19.152 69.7214 19.536C69.284 19.9093 69.0174 20.4107 68.9214 21.04H73.7694C73.684 20.4213 73.4227 19.92 72.9854 19.536C72.548 19.152 72.004 18.96 71.3534 18.96ZM82.1601 26L79.9681 23.04L77.7601 26H75.5521L78.8801 21.664L75.6961 17.456H77.9201L80.0161 20.256L82.1121 17.456H84.2721L81.0721 21.632L84.4161 26H82.1601Z" fill="#757575"/>
</svg>
