<svg width="26" height="18" viewBox="0 0 26 18" fill="none" xmlns="http://www.w3.org/2000/svg">
<path fill-rule="evenodd" clip-rule="evenodd" d="M22.7277 0.684539C23.8259 0.998319 24.6104 1.78277 24.9241 2.88101C25.5517 4.92058 25.5517 8.99973 25.5517 8.99973C25.5517 8.99973 25.5517 13.0789 25.081 15.1185C24.7673 16.2167 23.9828 17.0011 22.8845 17.3149C20.845 17.7856 13.0005 17.7856 13.0005 17.7856C13.0005 17.7856 4.99904 17.7856 3.11635 17.3149C2.01812 17.0011 1.23368 16.2167 0.919895 15.1185C0.449223 13.0789 0.449219 8.99973 0.449219 8.99973C0.449219 8.99973 0.449214 4.92058 0.762995 2.88101C1.07678 1.78277 1.86124 0.998319 2.95948 0.684539C4.99905 0.213867 12.8436 0.213867 12.8436 0.213867C12.8436 0.213867 20.845 0.213867 22.7277 0.684539ZM10.4902 5.92363C10.4902 5.6165 10.822 5.42396 11.0887 5.57633L16.4718 8.65243C16.7406 8.80599 16.7406 9.19347 16.4718 9.34703L11.0887 12.4231C10.822 12.5755 10.4902 12.383 10.4902 12.0758V5.92363Z" fill="#BABABA"/>
</svg>
